<?xml version="1.0" encoding="utf-8" standalone="no"?>
<!DOCTYPE svg PUBLIC "-//W3C//DTD SVG 1.1//EN"
  "http://www.w3.org/Graphics/SVG/1.1/DTD/svg11.dtd">
<svg height="205.5575pt" version="1.1" viewBox="0 0 388.704062 205.5575" width="388.704062pt" xmlns="http://www.w3.org/2000/svg" xmlns:xlink="http://www.w3.org/1999/xlink">
 <metadata>
  <rdf:RDF xmlns:cc="http://creativecommons.org/ns#" xmlns:dc="http://purl.org/dc/elements/1.1/" xmlns:rdf="http://www.w3.org/1999/02/22-rdf-syntax-ns#">
   <cc:Work>
    <dc:type rdf:resource="http://purl.org/dc/dcmitype/StillImage"/>
    <dc:date>2022-11-02T11:49:22.001014</dc:date>
    <dc:format>image/svg+xml</dc:format>
    <dc:creator>
     <cc:Agent>
      <dc:title>Matplotlib v3.4.3, https://matplotlib.org/</dc:title>
     </cc:Agent>
    </dc:creator>
   </cc:Work>
  </rdf:RDF>
 </metadata>
 <defs>
  <style type="text/css">*{stroke-linecap:butt;stroke-linejoin:round;}</style>
 </defs>
 <g id="figure_1">
  <g id="patch_1">
   <path d="M -0 205.5575 
L 388.704062 205.5575 
L 388.704062 0 
L -0 0 
z
" style="fill:#ffffff;"/>
  </g>
  <g id="axes_1">
   <g id="patch_2">
    <path d="M 46.704063 170.28 
L 381.504063 170.28 
L 381.504063 7.2 
L 46.704063 7.2 
z
" style="fill:#ffffff;"/>
   </g>
   <g id="matplotlib.axis_1">
    <g id="xtick_1">
     <g id="line2d_1">
      <defs>
       <path d="M 0 0 
L 0 -3.5 
" id="m9619482c13" style="stroke:#000000;stroke-width:0.8;"/>
      </defs>
      <g>
       <use style="stroke:#000000;stroke-width:0.8;" x="65.094229" xlink:href="#m9619482c13" y="170.28"/>
      </g>
     </g>
     <g id="text_1">
      <!-- −30 -->
      <g transform="translate(54.541885 181.378438)scale(0.1 -0.1)">
       <defs>
        <path d="M 678 2272 
L 4684 2272 
L 4684 1741 
L 678 1741 
L 678 2272 
z
" id="DejaVuSans-2212" transform="scale(0.015625)"/>
        <path d="M 2597 2516 
Q 3050 2419 3304 2112 
Q 3559 1806 3559 1356 
Q 3559 666 3084 287 
Q 2609 -91 1734 -91 
Q 1441 -91 1130 -33 
Q 819 25 488 141 
L 488 750 
Q 750 597 1062 519 
Q 1375 441 1716 441 
Q 2309 441 2620 675 
Q 2931 909 2931 1356 
Q 2931 1769 2642 2001 
Q 2353 2234 1838 2234 
L 1294 2234 
L 1294 2753 
L 1863 2753 
Q 2328 2753 2575 2939 
Q 2822 3125 2822 3475 
Q 2822 3834 2567 4026 
Q 2313 4219 1838 4219 
Q 1578 4219 1281 4162 
Q 984 4106 628 3988 
L 628 4550 
Q 988 4650 1302 4700 
Q 1616 4750 1894 4750 
Q 2613 4750 3031 4423 
Q 3450 4097 3450 3541 
Q 3450 3153 3228 2886 
Q 3006 2619 2597 2516 
z
" id="DejaVuSans-33" transform="scale(0.015625)"/>
        <path d="M 2034 4250 
Q 1547 4250 1301 3770 
Q 1056 3291 1056 2328 
Q 1056 1369 1301 889 
Q 1547 409 2034 409 
Q 2525 409 2770 889 
Q 3016 1369 3016 2328 
Q 3016 3291 2770 3770 
Q 2525 4250 2034 4250 
z
M 2034 4750 
Q 2819 4750 3233 4129 
Q 3647 3509 3647 2328 
Q 3647 1150 3233 529 
Q 2819 -91 2034 -91 
Q 1250 -91 836 529 
Q 422 1150 422 2328 
Q 422 3509 836 4129 
Q 1250 4750 2034 4750 
z
" id="DejaVuSans-30" transform="scale(0.015625)"/>
       </defs>
       <use xlink:href="#DejaVuSans-2212"/>
       <use x="83.789062" xlink:href="#DejaVuSans-33"/>
       <use x="147.412109" xlink:href="#DejaVuSans-30"/>
      </g>
     </g>
    </g>
    <g id="xtick_2">
     <g id="line2d_2">
      <g>
       <use style="stroke:#000000;stroke-width:0.8;" x="128.823861" xlink:href="#m9619482c13" y="170.28"/>
      </g>
     </g>
     <g id="text_2">
      <!-- −20 -->
      <g transform="translate(118.271518 181.378438)scale(0.1 -0.1)">
       <defs>
        <path d="M 1228 531 
L 3431 531 
L 3431 0 
L 469 0 
L 469 531 
Q 828 903 1448 1529 
Q 2069 2156 2228 2338 
Q 2531 2678 2651 2914 
Q 2772 3150 2772 3378 
Q 2772 3750 2511 3984 
Q 2250 4219 1831 4219 
Q 1534 4219 1204 4116 
Q 875 4013 500 3803 
L 500 4441 
Q 881 4594 1212 4672 
Q 1544 4750 1819 4750 
Q 2544 4750 2975 4387 
Q 3406 4025 3406 3419 
Q 3406 3131 3298 2873 
Q 3191 2616 2906 2266 
Q 2828 2175 2409 1742 
Q 1991 1309 1228 531 
z
" id="DejaVuSans-32" transform="scale(0.015625)"/>
       </defs>
       <use xlink:href="#DejaVuSans-2212"/>
       <use x="83.789062" xlink:href="#DejaVuSans-32"/>
       <use x="147.412109" xlink:href="#DejaVuSans-30"/>
      </g>
     </g>
    </g>
    <g id="xtick_3">
     <g id="line2d_3">
      <g>
       <use style="stroke:#000000;stroke-width:0.8;" x="192.553494" xlink:href="#m9619482c13" y="170.28"/>
      </g>
     </g>
     <g id="text_3">
      <!-- −10 -->
      <g transform="translate(182.00115 181.378438)scale(0.1 -0.1)">
       <defs>
        <path d="M 794 531 
L 1825 531 
L 1825 4091 
L 703 3866 
L 703 4441 
L 1819 4666 
L 2450 4666 
L 2450 531 
L 3481 531 
L 3481 0 
L 794 0 
L 794 531 
z
" id="DejaVuSans-31" transform="scale(0.015625)"/>
       </defs>
       <use xlink:href="#DejaVuSans-2212"/>
       <use x="83.789062" xlink:href="#DejaVuSans-31"/>
       <use x="147.412109" xlink:href="#DejaVuSans-30"/>
      </g>
     </g>
    </g>
    <g id="xtick_4">
     <g id="line2d_4">
      <g>
       <use style="stroke:#000000;stroke-width:0.8;" x="256.283126" xlink:href="#m9619482c13" y="170.28"/>
      </g>
     </g>
     <g id="text_4">
      <!-- 0 -->
      <g transform="translate(253.101876 181.378438)scale(0.1 -0.1)">
       <use xlink:href="#DejaVuSans-30"/>
      </g>
     </g>
    </g>
    <g id="xtick_5">
     <g id="line2d_5">
      <g>
       <use style="stroke:#000000;stroke-width:0.8;" x="320.012758" xlink:href="#m9619482c13" y="170.28"/>
      </g>
     </g>
     <g id="text_5">
      <!-- 10 -->
      <g transform="translate(313.650258 181.378438)scale(0.1 -0.1)">
       <use xlink:href="#DejaVuSans-31"/>
       <use x="63.623047" xlink:href="#DejaVuSans-30"/>
      </g>
     </g>
    </g>
    <g id="text_6">
     <!-- east (m) -->
     <g transform="translate(194.6125 195.790625)scale(0.12 -0.12)">
      <defs>
       <path d="M 681 1784 
Q 678 1147 991 784 
Q 1303 422 1725 422 
Q 2006 422 2214 576 
Q 2422 731 2563 1106 
L 2659 1044 
Q 2594 616 2278 264 
Q 1963 -88 1488 -88 
Q 972 -88 605 314 
Q 238 716 238 1394 
Q 238 2128 614 2539 
Q 991 2950 1559 2950 
Q 2041 2950 2350 2633 
Q 2659 2316 2659 1784 
L 681 1784 
z
M 681 1966 
L 2006 1966 
Q 1991 2241 1941 2353 
Q 1863 2528 1708 2628 
Q 1553 2728 1384 2728 
Q 1125 2728 920 2526 
Q 716 2325 681 1966 
z
" id="TimesNewRomanPSMT-65" transform="scale(0.015625)"/>
       <path d="M 1822 413 
Q 1381 72 1269 19 
Q 1100 -59 909 -59 
Q 613 -59 420 144 
Q 228 347 228 678 
Q 228 888 322 1041 
Q 450 1253 767 1440 
Q 1084 1628 1822 1897 
L 1822 2009 
Q 1822 2438 1686 2597 
Q 1550 2756 1291 2756 
Q 1094 2756 978 2650 
Q 859 2544 859 2406 
L 866 2225 
Q 866 2081 792 2003 
Q 719 1925 600 1925 
Q 484 1925 411 2006 
Q 338 2088 338 2228 
Q 338 2497 613 2722 
Q 888 2947 1384 2947 
Q 1766 2947 2009 2819 
Q 2194 2722 2281 2516 
Q 2338 2381 2338 1966 
L 2338 994 
Q 2338 584 2353 492 
Q 2369 400 2405 369 
Q 2441 338 2488 338 
Q 2538 338 2575 359 
Q 2641 400 2828 588 
L 2828 413 
Q 2478 -56 2159 -56 
Q 2006 -56 1915 50 
Q 1825 156 1822 413 
z
M 1822 616 
L 1822 1706 
Q 1350 1519 1213 1441 
Q 966 1303 859 1153 
Q 753 1003 753 825 
Q 753 600 887 451 
Q 1022 303 1197 303 
Q 1434 303 1822 616 
z
" id="TimesNewRomanPSMT-61" transform="scale(0.015625)"/>
       <path d="M 2050 2947 
L 2050 1972 
L 1947 1972 
Q 1828 2431 1642 2597 
Q 1456 2763 1169 2763 
Q 950 2763 815 2647 
Q 681 2531 681 2391 
Q 681 2216 781 2091 
Q 878 1963 1175 1819 
L 1631 1597 
Q 2266 1288 2266 781 
Q 2266 391 1970 151 
Q 1675 -88 1309 -88 
Q 1047 -88 709 6 
Q 606 38 541 38 
Q 469 38 428 -44 
L 325 -44 
L 325 978 
L 428 978 
Q 516 541 762 319 
Q 1009 97 1316 97 
Q 1531 97 1667 223 
Q 1803 350 1803 528 
Q 1803 744 1651 891 
Q 1500 1038 1047 1263 
Q 594 1488 453 1669 
Q 313 1847 313 2119 
Q 313 2472 555 2709 
Q 797 2947 1181 2947 
Q 1350 2947 1591 2875 
Q 1750 2828 1803 2828 
Q 1853 2828 1881 2850 
Q 1909 2872 1947 2947 
L 2050 2947 
z
" id="TimesNewRomanPSMT-73" transform="scale(0.015625)"/>
       <path d="M 1031 3803 
L 1031 2863 
L 1700 2863 
L 1700 2644 
L 1031 2644 
L 1031 788 
Q 1031 509 1111 412 
Q 1191 316 1316 316 
Q 1419 316 1516 380 
Q 1613 444 1666 569 
L 1788 569 
Q 1678 263 1478 108 
Q 1278 -47 1066 -47 
Q 922 -47 784 33 
Q 647 113 581 261 
Q 516 409 516 719 
L 516 2644 
L 63 2644 
L 63 2747 
Q 234 2816 414 2980 
Q 594 3144 734 3369 
Q 806 3488 934 3803 
L 1031 3803 
z
" id="TimesNewRomanPSMT-74" transform="scale(0.015625)"/>
       <path id="TimesNewRomanPSMT-20" transform="scale(0.015625)"/>
       <path d="M 1988 -1253 
L 1988 -1369 
Q 1516 -1131 1200 -813 
Q 750 -359 506 256 
Q 263 872 263 1534 
Q 263 2503 741 3301 
Q 1219 4100 1988 4444 
L 1988 4313 
Q 1603 4100 1356 3731 
Q 1109 3363 987 2797 
Q 866 2231 866 1616 
Q 866 947 969 400 
Q 1050 -31 1165 -292 
Q 1281 -553 1476 -793 
Q 1672 -1034 1988 -1253 
z
" id="TimesNewRomanPSMT-28" transform="scale(0.015625)"/>
       <path d="M 1050 2338 
Q 1363 2650 1419 2697 
Q 1559 2816 1721 2881 
Q 1884 2947 2044 2947 
Q 2313 2947 2506 2790 
Q 2700 2634 2766 2338 
Q 3088 2713 3309 2830 
Q 3531 2947 3766 2947 
Q 3994 2947 4170 2830 
Q 4347 2713 4450 2447 
Q 4519 2266 4519 1878 
L 4519 647 
Q 4519 378 4559 278 
Q 4591 209 4675 161 
Q 4759 113 4950 113 
L 4950 0 
L 3538 0 
L 3538 113 
L 3597 113 
Q 3781 113 3884 184 
Q 3956 234 3988 344 
Q 4000 397 4000 647 
L 4000 1878 
Q 4000 2228 3916 2372 
Q 3794 2572 3525 2572 
Q 3359 2572 3192 2489 
Q 3025 2406 2788 2181 
L 2781 2147 
L 2788 2013 
L 2788 647 
Q 2788 353 2820 281 
Q 2853 209 2943 161 
Q 3034 113 3253 113 
L 3253 0 
L 1806 0 
L 1806 113 
Q 2044 113 2133 169 
Q 2222 225 2256 338 
Q 2272 391 2272 647 
L 2272 1878 
Q 2272 2228 2169 2381 
Q 2031 2581 1784 2581 
Q 1616 2581 1450 2491 
Q 1191 2353 1050 2181 
L 1050 647 
Q 1050 366 1089 281 
Q 1128 197 1204 155 
Q 1281 113 1516 113 
L 1516 0 
L 100 0 
L 100 113 
Q 297 113 375 155 
Q 453 197 493 289 
Q 534 381 534 647 
L 534 1741 
Q 534 2213 506 2350 
Q 484 2453 437 2492 
Q 391 2531 309 2531 
Q 222 2531 100 2484 
L 53 2597 
L 916 2947 
L 1050 2947 
L 1050 2338 
z
" id="TimesNewRomanPSMT-6d" transform="scale(0.015625)"/>
       <path d="M 144 4313 
L 144 4444 
Q 619 4209 934 3891 
Q 1381 3434 1625 2820 
Q 1869 2206 1869 1541 
Q 1869 572 1392 -226 
Q 916 -1025 144 -1369 
L 144 -1253 
Q 528 -1038 776 -670 
Q 1025 -303 1145 264 
Q 1266 831 1266 1447 
Q 1266 2113 1163 2663 
Q 1084 3094 967 3353 
Q 850 3613 656 3853 
Q 463 4094 144 4313 
z
" id="TimesNewRomanPSMT-29" transform="scale(0.015625)"/>
      </defs>
      <use xlink:href="#TimesNewRomanPSMT-65"/>
      <use x="44.384766" xlink:href="#TimesNewRomanPSMT-61"/>
      <use x="88.769531" xlink:href="#TimesNewRomanPSMT-73"/>
      <use x="127.685547" xlink:href="#TimesNewRomanPSMT-74"/>
      <use x="155.46875" xlink:href="#TimesNewRomanPSMT-20"/>
      <use x="180.46875" xlink:href="#TimesNewRomanPSMT-28"/>
      <use x="213.769531" xlink:href="#TimesNewRomanPSMT-6d"/>
      <use x="291.552734" xlink:href="#TimesNewRomanPSMT-29"/>
     </g>
    </g>
   </g>
   <g id="matplotlib.axis_2">
    <g id="ytick_1">
     <g id="line2d_6">
      <defs>
       <path d="M 0 0 
L 3.5 0 
" id="m6701d7ae3a" style="stroke:#000000;stroke-width:0.8;"/>
      </defs>
      <g>
       <use style="stroke:#000000;stroke-width:0.8;" x="46.704063" xlink:href="#m6701d7ae3a" y="162.032046"/>
      </g>
     </g>
     <g id="text_7">
      <!-- −50 -->
      <g transform="translate(22.099375 165.831265)scale(0.1 -0.1)">
       <defs>
        <path d="M 691 4666 
L 3169 4666 
L 3169 4134 
L 1269 4134 
L 1269 2991 
Q 1406 3038 1543 3061 
Q 1681 3084 1819 3084 
Q 2600 3084 3056 2656 
Q 3513 2228 3513 1497 
Q 3513 744 3044 326 
Q 2575 -91 1722 -91 
Q 1428 -91 1123 -41 
Q 819 9 494 109 
L 494 744 
Q 775 591 1075 516 
Q 1375 441 1709 441 
Q 2250 441 2565 725 
Q 2881 1009 2881 1497 
Q 2881 1984 2565 2268 
Q 2250 2553 1709 2553 
Q 1456 2553 1204 2497 
Q 953 2441 691 2322 
L 691 4666 
z
" id="DejaVuSans-35" transform="scale(0.015625)"/>
       </defs>
       <use xlink:href="#DejaVuSans-2212"/>
       <use x="83.789062" xlink:href="#DejaVuSans-35"/>
       <use x="147.412109" xlink:href="#DejaVuSans-30"/>
      </g>
     </g>
    </g>
    <g id="ytick_2">
     <g id="line2d_7">
      <g>
       <use style="stroke:#000000;stroke-width:0.8;" x="46.704063" xlink:href="#m6701d7ae3a" y="138.981652"/>
      </g>
     </g>
     <g id="text_8">
      <!-- −40 -->
      <g transform="translate(22.099375 142.78087)scale(0.1 -0.1)">
       <defs>
        <path d="M 2419 4116 
L 825 1625 
L 2419 1625 
L 2419 4116 
z
M 2253 4666 
L 3047 4666 
L 3047 1625 
L 3713 1625 
L 3713 1100 
L 3047 1100 
L 3047 0 
L 2419 0 
L 2419 1100 
L 313 1100 
L 313 1709 
L 2253 4666 
z
" id="DejaVuSans-34" transform="scale(0.015625)"/>
       </defs>
       <use xlink:href="#DejaVuSans-2212"/>
       <use x="83.789062" xlink:href="#DejaVuSans-34"/>
       <use x="147.412109" xlink:href="#DejaVuSans-30"/>
      </g>
     </g>
    </g>
    <g id="ytick_3">
     <g id="line2d_8">
      <g>
       <use style="stroke:#000000;stroke-width:0.8;" x="46.704063" xlink:href="#m6701d7ae3a" y="115.931258"/>
      </g>
     </g>
     <g id="text_9">
      <!-- −30 -->
      <g transform="translate(22.099375 119.730476)scale(0.1 -0.1)">
       <use xlink:href="#DejaVuSans-2212"/>
       <use x="83.789062" xlink:href="#DejaVuSans-33"/>
       <use x="147.412109" xlink:href="#DejaVuSans-30"/>
      </g>
     </g>
    </g>
    <g id="ytick_4">
     <g id="line2d_9">
      <g>
       <use style="stroke:#000000;stroke-width:0.8;" x="46.704063" xlink:href="#m6701d7ae3a" y="92.880864"/>
      </g>
     </g>
     <g id="text_10">
      <!-- −20 -->
      <g transform="translate(22.099375 96.680082)scale(0.1 -0.1)">
       <use xlink:href="#DejaVuSans-2212"/>
       <use x="83.789062" xlink:href="#DejaVuSans-32"/>
       <use x="147.412109" xlink:href="#DejaVuSans-30"/>
      </g>
     </g>
    </g>
    <g id="ytick_5">
     <g id="line2d_10">
      <g>
       <use style="stroke:#000000;stroke-width:0.8;" x="46.704063" xlink:href="#m6701d7ae3a" y="69.83047"/>
      </g>
     </g>
     <g id="text_11">
      <!-- −10 -->
      <g transform="translate(22.099375 73.629688)scale(0.1 -0.1)">
       <use xlink:href="#DejaVuSans-2212"/>
       <use x="83.789062" xlink:href="#DejaVuSans-31"/>
       <use x="147.412109" xlink:href="#DejaVuSans-30"/>
      </g>
     </g>
    </g>
    <g id="ytick_6">
     <g id="line2d_11">
      <g>
       <use style="stroke:#000000;stroke-width:0.8;" x="46.704063" xlink:href="#m6701d7ae3a" y="46.780075"/>
      </g>
     </g>
     <g id="text_12">
      <!-- 0 -->
      <g transform="translate(36.841563 50.579294)scale(0.1 -0.1)">
       <use xlink:href="#DejaVuSans-30"/>
      </g>
     </g>
    </g>
    <g id="ytick_7">
     <g id="line2d_12">
      <g>
       <use style="stroke:#000000;stroke-width:0.8;" x="46.704063" xlink:href="#m6701d7ae3a" y="23.729681"/>
      </g>
     </g>
     <g id="text_13">
      <!-- 10 -->
      <g transform="translate(30.479063 27.5289)scale(0.1 -0.1)">
       <use xlink:href="#DejaVuSans-31"/>
       <use x="63.623047" xlink:href="#DejaVuSans-30"/>
      </g>
     </g>
    </g>
    <g id="text_14">
     <!-- north (m) -->
     <g transform="translate(15.5325 111.567188)rotate(-90)scale(0.12 -0.12)">
      <defs>
       <path d="M 1034 2341 
Q 1538 2947 1994 2947 
Q 2228 2947 2397 2830 
Q 2566 2713 2666 2444 
Q 2734 2256 2734 1869 
L 2734 647 
Q 2734 375 2778 278 
Q 2813 200 2889 156 
Q 2966 113 3172 113 
L 3172 0 
L 1756 0 
L 1756 113 
L 1816 113 
Q 2016 113 2095 173 
Q 2175 234 2206 353 
Q 2219 400 2219 647 
L 2219 1819 
Q 2219 2209 2117 2386 
Q 2016 2563 1775 2563 
Q 1403 2563 1034 2156 
L 1034 647 
Q 1034 356 1069 288 
Q 1113 197 1189 155 
Q 1266 113 1500 113 
L 1500 0 
L 84 0 
L 84 113 
L 147 113 
Q 366 113 442 223 
Q 519 334 519 647 
L 519 1709 
Q 519 2225 495 2337 
Q 472 2450 423 2490 
Q 375 2531 294 2531 
Q 206 2531 84 2484 
L 38 2597 
L 900 2947 
L 1034 2947 
L 1034 2341 
z
" id="TimesNewRomanPSMT-6e" transform="scale(0.015625)"/>
       <path d="M 1600 2947 
Q 2250 2947 2644 2453 
Q 2978 2031 2978 1484 
Q 2978 1100 2793 706 
Q 2609 313 2286 112 
Q 1963 -88 1566 -88 
Q 919 -88 538 428 
Q 216 863 216 1403 
Q 216 1797 411 2186 
Q 606 2575 925 2761 
Q 1244 2947 1600 2947 
z
M 1503 2744 
Q 1338 2744 1170 2645 
Q 1003 2547 900 2300 
Q 797 2053 797 1666 
Q 797 1041 1045 587 
Q 1294 134 1700 134 
Q 2003 134 2200 384 
Q 2397 634 2397 1244 
Q 2397 2006 2069 2444 
Q 1847 2744 1503 2744 
z
" id="TimesNewRomanPSMT-6f" transform="scale(0.015625)"/>
       <path d="M 1038 2947 
L 1038 2303 
Q 1397 2947 1775 2947 
Q 1947 2947 2059 2842 
Q 2172 2738 2172 2600 
Q 2172 2478 2090 2393 
Q 2009 2309 1897 2309 
Q 1788 2309 1652 2417 
Q 1516 2525 1450 2525 
Q 1394 2525 1328 2463 
Q 1188 2334 1038 2041 
L 1038 669 
Q 1038 431 1097 309 
Q 1138 225 1241 169 
Q 1344 113 1538 113 
L 1538 0 
L 72 0 
L 72 113 
Q 291 113 397 181 
Q 475 231 506 341 
Q 522 394 522 644 
L 522 1753 
Q 522 2253 501 2348 
Q 481 2444 426 2487 
Q 372 2531 291 2531 
Q 194 2531 72 2484 
L 41 2597 
L 906 2947 
L 1038 2947 
z
" id="TimesNewRomanPSMT-72" transform="scale(0.015625)"/>
       <path d="M 1041 4444 
L 1041 2350 
Q 1388 2731 1591 2839 
Q 1794 2947 1997 2947 
Q 2241 2947 2416 2812 
Q 2591 2678 2675 2391 
Q 2734 2191 2734 1659 
L 2734 647 
Q 2734 375 2778 275 
Q 2809 200 2884 156 
Q 2959 113 3159 113 
L 3159 0 
L 1753 0 
L 1753 113 
L 1819 113 
Q 2019 113 2097 173 
Q 2175 234 2206 353 
Q 2216 403 2216 647 
L 2216 1659 
Q 2216 2128 2167 2275 
Q 2119 2422 2012 2495 
Q 1906 2569 1756 2569 
Q 1603 2569 1437 2487 
Q 1272 2406 1041 2159 
L 1041 647 
Q 1041 353 1073 281 
Q 1106 209 1195 161 
Q 1284 113 1503 113 
L 1503 0 
L 84 0 
L 84 113 
Q 275 113 384 172 
Q 447 203 484 290 
Q 522 378 522 647 
L 522 3238 
Q 522 3728 498 3840 
Q 475 3953 426 3993 
Q 378 4034 297 4034 
Q 231 4034 84 3984 
L 41 4094 
L 897 4444 
L 1041 4444 
z
" id="TimesNewRomanPSMT-68" transform="scale(0.015625)"/>
      </defs>
      <use xlink:href="#TimesNewRomanPSMT-6e"/>
      <use x="50" xlink:href="#TimesNewRomanPSMT-6f"/>
      <use x="100" xlink:href="#TimesNewRomanPSMT-72"/>
      <use x="133.300781" xlink:href="#TimesNewRomanPSMT-74"/>
      <use x="161.083984" xlink:href="#TimesNewRomanPSMT-68"/>
      <use x="211.083984" xlink:href="#TimesNewRomanPSMT-20"/>
      <use x="236.083984" xlink:href="#TimesNewRomanPSMT-28"/>
      <use x="269.384766" xlink:href="#TimesNewRomanPSMT-6d"/>
      <use x="347.167969" xlink:href="#TimesNewRomanPSMT-29"/>
     </g>
    </g>
   </g>
   <g id="line2d_13">
    <path clip-path="url(#p52b810462c)" d="M 237.164236 32.949839 
L 237.273185 31.673982 
L 237.562856 30.959859 
L 238.062416 30.308375 
L 238.847112 29.651818 
L 240.038049 28.964677 
L 241.619731 28.315184 
L 243.738257 27.69299 
L 246.399973 27.15039 
L 249.663614 26.720303 
L 253.471506 26.445506 
L 257.954017 26.350744 
L 262.935824 26.470093 
L 268.343273 26.824656 
L 273.80724 27.405696 
L 279.07649 28.185679 
L 284.101232 29.153455 
L 288.667536 30.25541 
L 292.839324 31.488582 
L 296.526245 32.807005 
L 299.734923 34.185225 
L 302.480276 35.599785 
L 304.784008 37.02949 
L 306.673149 38.455539 
L 308.178712 39.861562 
L 309.334478 41.23357 
L 310.19519 42.59598 
L 310.764671 43.903864 
L 311.086113 45.185847 
L 311.176897 46.472679 
L 311.041243 47.734484 
L 310.659535 49.112955 
L 309.890272 51.621035 
L 309.831806 52.684544 
L 309.997399 54.076468 
L 310.314173 56.547196 
L 310.187283 57.543599 
L 309.853925 58.434985 
L 309.292278 59.298507 
L 308.429052 60.199207 
L 307.228655 61.121578 
L 305.558966 62.113082 
L 303.310882 63.176815 
L 300.370472 64.309977 
L 296.697593 65.479831 
L 292.260088 66.652209 
L 287.29307 67.732106 
L 281.897569 68.678396 
L 276.095576 69.467552 
L 270.016443 70.065565 
L 263.807794 70.451995 
L 257.424049 70.623984 
L 251.024241 70.57184 
L 244.668362 70.296121 
L 238.514022 69.809149 
L 232.515457 69.112881 
L 226.818152 68.229873 
L 221.460485 67.177469 
L 216.474089 65.973592 
L 211.960374 64.660742 
L 207.849738 63.237443 
L 204.217962 61.74957 
L 201.051859 60.21933 
L 198.332447 58.666884 
L 196.036098 57.110287 
L 194.097626 55.531378 
L 192.538097 53.976433 
L 191.325457 52.457904 
L 190.426491 50.986288 
L 189.79469 49.533796 
L 189.413959 48.106817 
L 189.267552 46.710964 
L 189.34312 45.314376 
L 189.64025 43.921663 
L 190.174378 42.50114 
L 190.961243 41.058601 
L 192.015815 39.600577 
L 193.352062 38.134345 
L 195.023735 36.634294 
L 197.060628 35.112435 
L 199.490586 33.58265 
L 202.338691 32.06075 
L 205.626347 30.564488 
L 209.298065 29.139393 
L 213.425791 27.776594 
L 218.014911 26.498528 
L 223.063325 25.329113 
L 228.46822 24.308992 
L 234.198662 23.454765 
L 240.217712 22.782396 
L 246.482377 22.30694 
L 252.943677 22.042249 
L 259.445203 21.999576 
L 265.92885 22.178927 
L 272.33697 22.578321 
L 278.516128 23.18258 
L 284.514514 23.990715 
L 290.191821 24.978027 
L 295.513663 26.127042 
L 300.452141 27.419897 
L 304.9116 28.813394 
L 308.962418 30.310567 
L 312.533684 31.865333 
L 315.640565 33.456364 
L 318.303457 35.064364 
L 320.546908 36.672103 
L 322.398628 38.264403 
L 323.888595 39.82808 
L 325.072126 41.387585 
L 325.945745 42.898601 
L 326.554536 44.389379 
L 326.914451 45.853808 
L 327.042007 47.28652 
L 326.948949 48.719576 
L 326.635886 50.148545 
L 326.087615 51.605298 
L 325.289097 53.084292 
L 324.226021 54.579307 
L 322.85082 56.118062 
L 321.173559 57.65667 
L 319.137216 59.219137 
L 316.714814 60.792457 
L 313.881838 62.361871 
L 310.61702 63.910856 
L 306.903182 65.421145 
L 302.728128 66.872804 
L 298.166806 68.222262 
L 293.148196 69.473831 
L 287.679162 70.604182 
L 281.868909 71.575186 
L 275.750908 72.371399 
L 269.364058 72.978167 
L 262.752621 73.381879 
L 256.067652 73.569048 
L 249.261773 73.53679 
L 242.491986 73.281666 
L 235.813523 72.80658 
L 229.376445 72.128069 
L 223.130063 71.24674 
L 217.211129 70.187938 
L 211.651306 68.968833 
L 206.47614 67.606851 
L 201.779591 66.144525 
L 197.490181 64.578105 
L 193.67881 62.95276 
L 190.330928 61.289004 
L 187.427223 59.605442 
L 184.899944 57.885743 
L 182.779787 56.175743 
L 181.038336 54.488909 
L 179.645619 52.836885 
L 178.549768 51.193639 
L 177.751584 49.602731 
L 177.209365 48.034804 
L 176.907508 46.495272 
L 176.830832 44.952129 
L 176.978798 43.409671 
L 177.350236 41.872151 
L 177.960166 40.307516 
L 178.822131 38.721018 
L 179.948962 37.118463 
L 181.385917 35.471489 
L 183.121652 33.823243 
L 185.21027 32.148522 
L 187.676536 30.458859 
L 190.543161 28.767195 
L 193.830229 27.087876 
L 197.554586 25.436621 
L 201.729217 23.83046 
L 206.362609 22.287637 
L 211.458125 20.827473 
L 217.013393 19.470199 
L 222.92951 18.253638 
L 229.274339 17.176964 
L 235.930275 16.272791 
L 242.960732 15.544809 
L 250.231141 15.018943 
L 257.595555 14.708344 
L 265.106733 14.61325 
L 272.715766 14.7411 
L 280.271068 15.091593 
L 287.724239 15.660168 
L 295.029086 16.440901 
L 302.048509 17.412164 
L 308.841601 18.575016 
L 315.285414 19.901176 
L 321.358749 21.374162 
L 327.045563 22.977712 
L 332.334575 24.695933 
L 337.218864 26.513443 
L 341.695458 28.415473 
L 345.706734 30.357845 
L 349.324962 32.354923 
L 352.508783 34.362274 
L 355.325269 36.399209 
L 357.747284 38.421635 
L 359.83484 40.453116 
L 361.573108 42.450285 
L 363.013796 44.440244 
L 364.171418 46.416691 
L 365.06093 48.373995 
L 365.69756 50.307157 
L 366.102171 52.248463 
L 366.277469 54.194229 
L 366.226664 56.140928 
L 365.953432 58.085188 
L 365.450537 60.060312 
L 364.710294 62.062684 
L 363.706091 64.124566 
L 362.443232 66.205359 
L 360.888635 68.336188 
L 359.025897 70.511438 
L 356.803716 72.759423 
L 354.236612 75.038307 
L 351.268552 77.374372 
L 347.877937 79.758523 
L 343.993468 82.212749 
L 339.644005 84.694164 
L 334.757482 87.222612 
L 329.314847 89.785667 
L 323.235022 92.398909 
L 316.499683 95.048012 
L 309.024182 97.74541 
L 300.720147 100.501304 
L 291.419691 103.347972 
L 280.948429 106.314157 
L 268.966592 109.470767 
L 254.70795 112.988667 
L 236.199615 117.311622 
L 168.562549 132.903044 
L 149.750355 137.590482 
L 131.990534 142.243948 
L 114.536772 147.046529 
L 96.911058 152.127845 
L 78.88787 157.555948 
L 61.922244 162.867273 
L 61.922244 162.867273 
" style="fill:none;stroke:#ff0000;stroke-linecap:square;stroke-width:1.5;"/>
   </g>
   <g id="line2d_14">
    <path clip-path="url(#p52b810462c)" d="M 256.283126 46.780075 
L 256.283126 46.780075 
" style="fill:none;stroke:#0000ff;stroke-dasharray:5.55,2.4;stroke-dashoffset:0;stroke-width:1.5;"/>
   </g>
   <g id="line2d_15">
    <path clip-path="url(#p52b810462c)" d="M 256.283126 23.729681 
L 262.645473 23.844837 
L 268.94425 24.189155 
L 275.11652 24.759193 
L 281.100614 25.549257 
L 286.836739 26.551452 
L 292.267583 27.755764 
L 297.338882 29.150162 
L 301.999966 30.720711 
L 306.204262 32.451721 
L 309.909763 34.325894 
L 313.079444 36.324506 
L 315.681634 38.427586 
L 317.690335 40.614122 
L 319.085475 42.862266 
L 319.853115 45.149555 
L 319.985584 47.453136 
L 319.48156 49.749992 
L 318.346078 52.017173 
L 316.590483 54.232027 
L 314.232317 56.372424 
L 311.295142 58.416977 
L 307.808305 60.345258 
L 303.806645 62.138 
L 299.330146 63.777291 
L 294.423536 65.246751 
L 289.135839 66.531699 
L 283.519889 67.619295 
L 277.631798 68.498672 
L 271.530398 69.161044 
L 265.276652 69.599793 
L 258.933046 69.810534 
L 252.562963 69.791163 
L 246.230051 69.541873 
L 239.997586 69.065155 
L 233.92784 68.365771 
L 228.081461 67.45071 
L 222.516864 66.329115 
L 217.289648 65.012193 
L 212.452042 63.513101 
L 208.052381 61.846818 
L 204.134627 60.029994 
L 200.737923 58.080781 
L 197.896208 56.018654 
L 195.637876 53.864219 
L 193.985491 51.639002 
L 192.955564 49.365235 
L 192.558384 47.065639 
L 192.797922 44.763189 
L 193.671782 42.480892 
L 195.171235 40.24155 
L 197.281297 38.06754 
L 199.980886 35.980582 
L 203.243028 34.001529 
L 207.035129 32.150155 
L 211.319301 30.444958 
L 216.052735 28.902976 
L 221.188139 27.539617 
L 226.6742 26.368502 
L 232.456104 25.401332 
L 238.476079 24.647772 
L 244.673977 24.11535 
L 250.987869 23.809387 
L 257.35467 23.73294 
L 263.710764 23.886772 
L 269.992644 24.269346 
L 276.137543 24.87684 
L 282.084063 25.703184 
L 287.772788 26.740121 
L 293.14688 27.97729 
L 298.152641 29.402331 
L 302.740055 31.001005 
L 306.863287 32.757338 
L 310.481139 34.653781 
L 313.557463 36.671387 
L 316.06152 38.789995 
L 317.968291 40.988437 
L 319.258724 43.244747 
L 319.919926 45.536382 
L 319.945291 47.840443 
L 319.334563 50.133909 
L 318.093847 52.393864 
L 316.235539 54.597729 
L 313.778205 56.723482 
L 310.7464 58.749884 
L 307.170416 60.656687 
L 303.085983 62.42484 
L 298.533911 64.036676 
L 293.559684 65.476089 
L 288.213001 66.728698 
L 282.547286 67.781987 
L 276.619147 68.625432 
L 270.487818 69.250605 
L 264.214561 69.65126 
L 257.862055 69.823394 
L 251.493773 69.765287 
L 245.173344 69.477519 
L 238.963921 68.962965 
L 232.927546 68.226768 
L 227.124532 67.276282 
L 221.612861 66.121005 
L 216.447603 64.77248 
L 211.68037 63.24418 
L 207.358792 61.551377 
L 203.52605 59.710984 
L 200.220439 57.741389 
L 197.474988 55.662273 
L 195.317128 53.494408 
L 193.768421 51.259456 
L 192.84434 48.979748 
L 192.554118 46.678061 
L 192.900655 44.377394 
L 193.880489 42.100733 
L 195.48383 39.870827 
L 197.694657 37.709956 
L 200.490881 35.63971 
L 203.844562 33.680776 
L 207.722192 31.852725 
L 212.085027 30.173823 
L 216.889475 28.660845 
L 222.087531 27.328909 
L 227.627258 26.191323 
L 233.453306 25.259452 
L 239.507461 24.542608 
L 245.729233 24.047954 
L 252.056456 23.780432 
L 258.425911 23.742714 
L 264.773955 23.935179 
L 271.037162 24.355901 
L 277.152952 25.000679 
L 283.060217 25.86307 
L 288.699934 26.934456 
L 294.015754 28.204133 
L 298.954561 29.659414 
L 303.467009 31.28576 
L 307.508012 33.06692 
L 311.037193 34.985097 
L 314.019289 37.021125 
L 316.424504 39.154662 
L 318.228807 41.36439 
L 319.414169 43.628229 
L 319.968746 45.92356 
L 319.886998 48.227449 
L 319.169741 50.516877 
L 317.824141 52.768968 
L 315.863644 54.96122 
L 313.307839 57.071728 
L 310.182261 59.079406 
L 306.518141 60.964193 
L 302.352089 62.707256 
L 297.725731 64.291181 
L 292.685293 65.700141 
L 287.281136 66.920057 
L 281.567257 67.938742 
L 275.600748 68.746016 
L 269.441223 69.333813 
L 263.150227 69.696261 
L 256.790617 69.829739 
L 250.425936 69.732911 
L 244.119779 69.406747 
L 237.935154 68.854504 
L 231.933855 68.081701 
L 226.175847 67.096059 
L 220.71866 65.907426 
L 215.616822 64.527679 
L 210.921308 62.970604 
L 206.679034 61.251759 
L 202.932388 59.388317 
L 199.718805 57.398898 
L 197.070394 55.30338 
L 195.013617 53.122699 
L 193.569025 50.878645 
L 192.751051 48.593639 
L 192.567869 46.290513 
L 193.021309 43.992278 
L 194.106839 41.721898 
L 195.813615 39.502057 
L 198.124582 37.354937 
L 201.01665 35.301989 
L 204.460922 33.363726 
L 208.422985 31.559515 
L 212.86325 29.907383 
L 217.737353 28.423837 
L 222.996592 27.123701 
L 228.588419 26.019965 
L 234.456962 25.123656 
L 240.543585 24.443732 
L 246.787473 23.986985 
L 253.126238 23.757979 
L 259.496545 23.759002 
L 265.834746 23.990044 
L 272.077509 24.448797 
L 278.16246 25.130676 
L 284.0288 26.028869 
L 289.617915 27.134402 
L 294.873959 28.436227 
L 299.744417 29.921338 
L 304.180624 31.574896 
L 308.138254 33.380379 
L 311.577766 35.319747 
L 314.464791 37.373623 
L 316.770485 39.521485 
L 318.471809 41.741873 
L 319.551764 44.012601 
L 319.99956 46.31098 
L 319.810722 48.614047 
L 318.987138 50.898789 
L 317.537036 53.142378 
L 315.474905 55.322398 
L 312.821349 57.417065 
L 309.602882 59.405451 
L 305.851662 61.267688 
L 301.605169 62.98517 
L 296.905834 64.540736 
L 291.80061 65.918843 
L 286.340506 67.105722 
L 280.58008 68.089514 
L 274.576886 68.860389 
L 268.390907 69.410645 
L 262.083951 69.734784 
L 255.719035 69.829567 
L 249.359756 69.694046 
L 243.069652 69.329578 
L 236.911573 68.739801 
L 230.947049 67.930611 
L 225.235674 66.910092 
L 219.834514 65.68844 
L 214.797538 64.277861 
L 210.175071 62.692451 
L 206.013301 60.94805 
L 202.353811 59.062087 
L 199.233164 57.053406 
L 196.682542 54.942077 
L 194.727429 52.749196 
L 193.38736 50.496674 
L 192.675725 48.207017 
L 192.599634 45.903102 
L 193.159848 43.60795 
L 194.350768 41.344492 
L 196.160496 39.135345 
L 198.57095 37.002582 
L 201.558045 34.967512 
L 205.091934 33.05047 
L 209.137309 31.270609 
L 213.653749 29.645713 
L 218.596128 28.192019 
L 223.915063 26.92405 
L 229.557409 25.854476 
L 235.46679 24.993984 
L 241.58416 24.351171 
L 247.848398 23.93246 
L 254.196912 23.742035 
L 260.566272 23.781799 
L 266.892836 24.051354 
L 273.11339 24.548006 
L 279.165783 25.266794 
L 284.98954 26.200536 
L 290.526471 27.339902 
L 295.721255 28.673507 
L 300.521985 30.188028 
L 304.880696 31.86833 
L 308.753836 33.697626 
L 312.102705 35.657637 
L 314.893844 37.72878 
L 317.099364 39.890361 
L 318.697229 42.120781 
L 319.671472 44.397756 
L 320.01236 46.698534 
L 319.716486 49.000126 
L 318.786807 51.279537 
L 317.232612 53.51399 
L 315.06943 55.68116 
L 312.318875 57.759394 
L 309.008429 59.727926 
L 305.171169 61.567087 
L 300.845436 63.258502 
L 296.074451 64.785269 
L 290.905885 66.132135 
L 285.391379 67.285641 
L 279.586033 68.234262 
L 273.547852 68.96852 
L 267.337168 69.481078 
L 261.016036 69.766816 
L 254.647613 69.822878 
L 248.295533 69.648703 
L 242.023261 69.246033 
L 235.89347 68.618891 
L 229.967405 67.773542 
L 224.304278 66.718433 
L 218.960674 65.464107 
L 213.989983 64.023096 
L 209.441871 62.409799 
L 205.361781 60.640335 
L 201.790481 58.732383 
L 198.763653 56.705008 
L 196.31154 54.578467 
L 194.458644 52.374006 
L 193.223478 50.113653 
L 192.618383 47.819991 
L 192.649405 45.51594 
L 193.316234 43.224519 
L 194.612207 40.968624 
L 196.524376 38.770795 
L 199.033635 36.652992 
L 202.114911 34.636376 
L 205.737419 32.741095 
L 209.864962 30.986088 
L 214.456301 29.388888 
L 219.465559 27.965456 
L 224.842686 26.730013 
L 230.533955 25.694904 
L 236.482502 24.87047 
L 242.62889 24.264951 
L 248.911707 23.884395 
L 255.268177 23.732605 
L 261.634787 23.811097 
L 267.947926 24.119089 
L 274.144514 24.653501 
L 280.162636 25.408995 
L 285.942163 26.378021 
L 291.425346 27.550898 
L 296.557399 28.915907 
L 301.287046 30.459408 
L 305.567028 32.165981 
L 309.354582 34.018572 
L 312.611863 35.998672 
L 315.306326 38.086497 
L 317.411049 40.261184 
L 318.905002 42.501007 
L 319.773258 44.783584 
L 320.007141 47.08611 
L 319.604315 49.385578 
L 318.568805 51.659012 
L 316.910957 53.883698 
L 314.647335 56.037407 
L 311.800558 58.098619 
L 308.399069 60.046741 
L 304.476854 61.862306 
L 300.073104 63.527175 
L 295.231819 65.024712 
L 290.001371 66.339955 
L 284.434022 67.459762 
L 278.585398 68.372944 
L 272.513938 69.070378 
L 266.280304 69.545094 
L 259.946782 69.792349 
L 253.576654 69.809674 
L 247.233568 69.596895 
L 240.980902 69.156137 
L 234.881131 68.491805 
L 228.995202 67.610537 
L 223.381925 66.521138 
L 218.097385 65.234492 
L 213.194385 63.763456 
L 208.721913 62.122728 
L 204.724658 60.328701 
L 201.242557 58.399301 
L 198.310404 56.353805 
L 195.957494 54.212651 
L 194.207339 51.997234 
L 193.077424 49.729689 
L 192.57904 47.432672 
L 192.717166 45.129135 
L 193.490422 42.842093 
L 194.891082 40.594398 
L 196.905151 38.408509 
L 199.512505 36.306265 
L 202.687093 34.308672 
L 206.397194 32.43569 
L 210.605739 30.706032 
L 215.270677 29.13698 
L 220.345399 27.744212 
L 225.779198 26.541645 
L 231.517782 25.541293 
L 237.503813 24.753152 
L 243.677481 24.185096 
L 249.977101 23.842803 
L 256.339728 23.72969 
L 262.70179 23.84689 
L 268.999718 24.193231 
L 275.170587 24.765252 
L 281.152738 25.557237 
L 286.8864 26.561275 
L 292.314285 27.767331 
L 297.382158 29.163357 
L 302.039383 30.735404 
L 306.239427 32.467763 
L 309.940324 34.343126 
L 313.105096 36.342755 
L 315.702121 38.446671 
L 317.705452 40.633851 
L 319.095071 42.882442 
L 319.857094 45.169977 
L 319.983906 47.473599 
L 319.474242 49.770292 
L 318.333193 52.037108 
L 316.57216 54.251397 
L 314.208739 56.391036 
L 311.266545 58.434644 
L 307.774974 60.361805 
L 303.768914 62.153261 
L 299.288391 63.791113 
L 294.378175 65.258996 
L 289.087325 66.542245 
L 283.468706 67.628036 
L 277.578458 68.505521 
L 271.475434 69.165933 
L 265.220613 69.602673 
L 258.876492 69.811377 
L 252.506459 69.789959 
L 246.174162 69.538635 
L 239.942869 69.059914 
L 233.874844 68.358581 
L 228.030714 67.441643 
L 222.468873 66.318261 
L 217.244893 64.99966 
L 212.41097 63.499014 
L 208.015403 61.831319 
L 204.102111 60.013237 
L 200.710195 58.062933 
L 197.873545 55.999895 
L 195.620504 53.844735 
L 193.973584 51.618987 
L 192.949241 49.344891 
L 192.557708 47.045168 
L 192.802899 44.742796 
L 193.682364 42.46078 
L 195.187315 40.221921 
L 197.302714 38.048589 
L 200.007427 35.962499 
L 203.274428 33.984495 
L 207.071074 32.13434 
L 211.35943 30.43052 
L 216.09665 28.89006 
L 221.235399 27.528351 
L 226.724334 26.358998 
L 232.50861 25.393686 
L 238.530434 24.64206 
L 244.729636 24.11163 
L 251.044277 23.807695 
L 257.411263 23.733293 
L 263.766977 23.889167 
L 270.047915 24.273759 
L 276.19132 24.883226 
L 282.135808 25.71148 
L 287.821985 26.750244 
L 293.193037 27.98914 
L 298.195296 29.415788 
L 302.778783 31.015935 
L 306.897701 32.773592 
L 310.510895 34.671197 
L 313.582263 36.689789 
L 316.081116 38.809201 
L 317.982488 41.008255 
L 319.267381 43.264979 
L 319.922955 45.556825 
L 319.942662 47.860893 
L 319.326303 50.154162 
L 318.080038 52.413718 
L 316.216318 54.616985 
L 313.753766 56.741947 
L 310.716986 58.767374 
L 307.136321 60.673028 
L 303.047548 62.439869 
L 298.49152 64.050241 
L 293.51376 65.488056 
L 288.164003 66.738947 
L 282.495704 67.790416 
L 276.565497 68.631956 
L 270.432635 69.255159 
L 264.158396 69.653799 
L 257.80547 69.823892 
L 251.437333 69.763739 
L 245.117614 69.473941 
L 238.909456 68.957393 
L 232.874891 68.219257 
L 227.074213 67.266907 
L 221.565381 66.10986 
L 216.403438 64.759676 
L 211.639958 63.229846 
L 207.322539 61.535655 
L 203.494318 59.694031 
L 200.193545 57.723375 
L 197.4532 55.643378 
L 195.300665 53.474821 
L 193.757446 51.239373 
L 192.838963 48.959368 
L 192.554394 46.657589 
L 192.90658 44.357034 
L 193.892004 42.080689 
L 195.50082 39.851299 
L 197.716953 37.691139 
L 200.518259 35.621792 
L 203.876749 33.663935 
L 207.758867 31.837131 
L 212.125823 30.159631 
L 216.933984 28.648198 
L 222.135309 27.317932 
L 227.677827 26.182125 
L 233.50616 25.252127 
L 239.562073 24.537228 
L 245.785057 24.044573 
L 252.112935 23.779083 
L 258.48248 23.743412 
L 264.830049 23.937915 
L 271.092221 24.36065 
L 277.206424 25.007392 
L 283.11157 25.87168 
L 288.748654 26.944877 
L 294.061353 28.216261 
L 298.996585 29.673129 
L 303.505038 31.300923 
L 307.541666 33.08338 
L 311.066135 35.00269 
L 314.04323 37.039676 
L 316.443205 39.173985 
L 318.242081 41.384291 
L 319.421883 43.64851 
L 319.970824 45.944019 
L 319.883419 48.247881 
L 319.16054 50.537077 
L 317.809411 52.788735 
L 315.843531 54.980356 
L 313.282544 57.090043 
L 310.152038 59.096715 
L 306.483291 60.980324 
L 302.31296 62.722049 
L 297.682715 64.304487 
L 292.638819 65.711827 
L 287.231668 66.930007 
L 281.51529 67.946856 
L 275.546801 68.752213 
L 269.385835 69.338031 
L 263.093952 69.698458 
L 256.734017 69.829893 
L 250.369576 69.731021 
L 244.064222 69.40283 
L 237.880955 68.848601 
L 231.881557 68.07387 
L 226.125971 67.086379 
L 220.671705 65.895994 
L 215.573257 64.514609 
L 210.881569 62.956026 
L 206.643518 61.235819 
L 202.901449 59.371174 
L 199.692752 57.380724 
L 197.049488 55.284355 
L 194.998067 53.103014 
L 193.558985 50.858497 
L 192.746623 48.573229 
L 192.569096 46.270045 
L 193.028179 43.971957 
L 194.119285 41.701926 
L 195.831511 39.482635 
L 198.147749 37.336258 
L 201.044857 35.28424 
L 204.493888 33.347084 
L 208.460379 31.544147 
L 212.9047 29.893442 
L 217.782443 28.411462 
L 223.044872 27.113016 
L 228.639408 26.011076 
L 234.51015 25.116654 
L 240.59844 24.438685 
L 246.843447 23.983944 
L 253.182772 23.756974 
L 259.553074 23.760044 
L 265.890704 23.993122 
L 272.132339 24.45388 
L 278.215613 25.137713 
L 284.079746 26.03779 
L 289.666143 27.145118 
L 294.918989 28.448631 
L 299.785798 29.935306 
L 304.217942 31.590288 
L 308.171138 33.397042 
L 311.605886 35.337514 
L 314.487867 37.392317 
L 316.788285 39.540919 
L 318.484156 41.761853 
L 319.558535 44.032926 
L 320.000687 46.331449 
L 319.806194 48.634454 
L 318.977 50.91893 
L 317.521389 53.162053 
L 315.453905 55.341409 
L 312.795207 57.435223 
L 309.571859 59.422574 
L 305.816067 61.283606 
L 301.565359 62.999723 
L 296.862205 64.553778 
L 291.753599 65.930245 
L 286.290583 67.11537 
L 280.527743 68.097311 
L 274.522659 68.866257 
L 268.335331 69.414526 
L 262.027582 69.736638 
L 255.662436 69.829376 
L 249.303492 69.691813 
L 243.014286 69.325324 
L 236.857657 68.73357 
L 230.895122 67.922464 
L 225.186255 66.90011 
L 219.788098 65.676723 
L 214.754587 64.264528 
L 210.136015 62.677633 
L 205.978531 60.931896 
L 202.323673 59.044758 
L 199.20796 57.035075 
L 196.662523 54.922928 
L 194.712796 52.72942 
L 193.378259 50.476468 
L 192.672247 48.186583 
L 192.601813 45.882645 
L 193.167662 43.587674 
L 194.36414 41.3246 
L 196.179292 39.116035 
L 198.594982 36.984047 
L 201.587073 34.949937 
L 205.125668 33.034031 
L 209.175412 31.25547 
L 213.695841 29.632026 
L 218.641787 28.17992 
L 223.963834 26.91366 
L 229.608804 25.845899 
L 235.520295 24.987305 
L 241.639242 24.346458 
L 247.904505 23.929759 
L 254.253485 23.741374 
L 260.622744 23.783184 
L 266.948643 24.054771 
L 273.167976 24.553421 
L 279.218601 25.274154 
L 285.040063 26.209766 
L 290.574194 27.35091 
L 295.765701 28.686183 
L 300.562711 30.202245 
L 304.917294 31.883947 
L 308.78594 33.714487 
L 312.129995 35.675573 
L 314.916047 37.747612 
L 317.116259 39.9099 
L 318.708645 42.140833 
L 319.677297 44.418119 
L 320.012535 46.719006 
L 319.71101 49.020502 
L 318.775734 51.299613 
L 317.216053 53.533567 
L 315.04755 55.700041 
L 312.291892 57.777391 
L 308.976614 59.744858 
L 305.134839 61.582786 
L 300.804955 63.27281 
L 296.030223 64.798045 
L 290.858351 66.143249 
L 285.341015 67.294983 
L 279.533342 68.241739 
L 273.49336 68.974057 
L 267.28142 69.48462 
L 260.959588 69.768327 
L 254.591031 69.822343 
L 248.23938 69.646128 
L 241.9681 69.241443 
L 235.839851 68.612332 
L 229.915865 67.76508 
L 224.255331 66.708152 
L 218.914808 65.45211 
L 213.947658 64.009503 
L 209.403509 62.394746 
L 205.327766 60.623971 
L 201.761152 58.714873 
L 198.739304 56.686527 
L 196.292415 54.559198 
L 194.444932 52.354143 
L 193.215317 50.093394 
L 192.615854 47.79954 
L 192.652534 45.495499 
L 193.32499 43.204293 
L 194.626502 40.948815 
L 196.544067 38.751601 
L 199.058525 36.634605 
L 202.144752 34.61898 
L 205.771912 32.724864 
L 209.903764 30.971182 
L 214.499022 29.375459 
L 219.511774 27.953636 
L 224.891933 26.719921 
L 230.585742 25.68664 
L 236.536311 24.864118 
L 242.684183 24.260573 
L 248.967932 23.882036 
L 255.324772 23.732288 
L 261.691187 23.812826 
L 268.003567 24.122845 
L 274.19884 24.659247 
L 280.215105 25.416674 
L 285.99225 26.387557 
L 291.472551 27.562195 
L 296.60125 28.928852 
L 301.327105 30.473872 
L 305.602895 32.181818 
L 309.385898 34.035626 
L 312.638316 36.016771 
L 315.327651 38.10546 
L 317.427033 40.280823 
L 318.915485 42.521125 
L 319.778135 44.80398 
L 320.006365 47.10658 
L 319.597892 49.405918 
L 318.5568 51.679019 
L 316.89349 53.903171 
L 314.62458 56.056152 
L 311.772743 58.116449 
L 308.366471 60.063477 
L 304.4398 61.877782 
L 300.031963 63.541235 
L 295.187003 65.037216 
L 289.953327 66.350779 
L 284.38323 67.468797 
L 278.532367 68.3801 
L 272.459196 69.075583 
L 266.224399 69.548296 
L 259.890272 69.793517 
L 253.520104 69.808796 
L 247.177543 69.593978 
L 240.925962 69.151212 
L 234.827825 68.484921 
L 228.944062 67.601763 
L 223.333462 66.510561 
L 218.052084 65.222218 
L 213.152698 63.749608 
L 208.684257 62.107443 
L 204.691408 60.312133 
L 201.214047 58.381615 
L 198.286917 56.335178 
L 195.939267 54.19327 
L 194.194552 51.977291 
L 193.070206 49.709384 
L 192.577463 47.412208 
L 192.721245 45.108715 
L 193.500117 42.821923 
L 194.906296 40.574679 
L 196.925732 38.389438 
L 199.538247 36.288032 
L 202.717738 34.29146 
L 206.432437 32.41967 
L 210.645228 30.691365 
L 215.314018 29.123812 
L 220.392157 27.732675 
L 225.828907 26.531854 
L 231.569945 25.533345 
L 237.557909 24.747128 
L 243.73297 24.181056 
L 250.033427 23.840786 
L 256.39633 23.729718 
L 262.758101 23.848961 
L 269.055177 24.197325 
L 275.224638 24.771328 
L 281.204842 25.565235 
L 286.936037 26.571113 
L 292.360958 27.778913 
L 297.425401 29.176567 
L 302.078764 30.750109 
L 306.274552 32.483816 
L 309.970842 34.360368 
L 313.130703 36.361013 
L 315.722561 38.465762 
L 317.72052 40.653584 
L 319.104617 42.902621 
L 319.861022 45.1904 
L 319.982178 47.494062 
L 319.466875 49.790591 
L 318.32026 52.057039 
L 316.55379 54.270762 
L 314.185116 56.40964 
L 311.237904 58.452303 
L 307.741603 60.37834 
L 303.731145 62.168509 
L 299.246603 63.804921 
L 294.332783 65.271227 
L 289.038784 66.552775 
L 283.417501 67.636761 
L 277.525101 68.512353 
L 271.420458 69.170804 
L 265.164567 69.605535 
L 258.819936 69.812201 
L 252.449959 69.788737 
L 246.11828 69.535379 
L 239.888166 69.054657 
L 233.821865 68.351374 
L 227.979989 67.432559 
L 222.420909 66.307391 
L 217.200169 64.987112 
L 212.369932 63.484914 
L 207.978462 61.815808 
L 204.069637 59.996469 
L 200.682511 58.045076 
L 197.850928 55.981128 
L 195.60318 53.825245 
L 193.961726 51.598969 
L 192.942968 49.324545 
L 192.557083 47.024697 
L 192.807927 44.722405 
L 193.692995 42.440672 
L 195.203443 40.202298 
L 197.324178 38.029646 
L 200.034012 35.944426 
L 203.305869 33.967472 
L 207.107057 32.118537 
L 211.399596 30.416095 
L 216.140596 28.877157 
L 221.282687 27.5171 
L 226.774491 26.349511 
L 232.561135 25.386058 
L 238.584802 24.636366 
L 244.785305 24.107928 
L 251.10069 23.806022 
L 257.467856 23.733665 
L 263.823185 23.89158 
L 270.103176 24.278189 
L 276.245081 24.88963 
L 282.187534 25.719793 
L 287.871158 26.760384 
L 293.239165 28.001004 
L 298.237919 29.429259 
L 302.817475 31.030877 
L 306.932075 32.789857 
L 310.540608 34.688621 
L 313.607018 36.7082 
L 316.100666 38.828414 
L 317.996637 41.028077 
L 319.275988 43.285213 
L 319.925934 45.577269 
L 319.939983 47.881342 
L 319.317993 50.174412 
L 318.06618 52.433567 
L 316.19705 54.636234 
L 313.729281 56.760405 
L 310.687529 58.784856 
L 307.102186 60.689359 
L 303.009076 62.454885 
L 298.449095 64.063793 
L 293.467806 65.500009 
L 288.11498 66.749181 
L 282.444101 67.798828 
L 276.51183 68.638463 
L 270.37744 69.259696 
L 264.102225 69.65632 
L 257.748883 69.824372 
L 251.380897 69.762173 
L 245.061892 69.470345 
L 238.855005 68.951803 
L 232.822255 68.211728 
L 227.023918 67.257516 
L 221.517929 66.0987 
L 216.359303 64.746858 
L 211.599582 63.215498 
L 207.286325 61.519921 
L 203.462627 59.677068 
L 200.166695 57.705353 
L 197.431459 55.624476 
L 195.284249 53.455228 
L 193.746521 51.219285 
L 192.833637 48.938987 
L 192.554719 46.637117 
L 192.912555 44.336676 
L 193.903569 42.060649 
L 195.517858 39.831776 
L 197.739294 37.672329 
L 200.545681 35.603883 
L 203.908977 33.647106 
L 207.795579 31.821549 
L 212.166653 30.145453 
L 216.978523 28.635564 
L 222.183113 27.30697 
L 227.728418 26.172944 
L 233.559033 25.244818 
L 239.616699 24.531866 
L 245.84089 24.041209 
L 252.169417 23.777753 
L 258.539047 23.744127 
L 264.886136 23.94067 
L 271.147267 24.365416 
L 277.259881 25.014122 
L 283.162901 25.880306 
L 288.797348 26.955314 
L 294.106923 28.228404 
L 299.038576 29.686857 
L 303.54303 31.316099 
L 307.575279 33.099852 
L 311.095033 35.020294 
L 314.067125 37.058235 
L 316.461859 39.193314 
L 318.255306 41.404197 
L 319.429548 43.668794 
L 319.972852 45.964478 
L 319.879789 48.268311 
L 319.151289 50.557274 
L 317.794632 52.808497 
L 315.823372 54.999486 
L 313.257205 57.108349 
L 310.121772 59.114015 
L 306.448401 60.996445 
L 302.273795 62.73683 
L 297.639666 64.317779 
L 292.592316 65.723498 
L 287.182177 66.939941 
L 281.463304 67.954953 
L 275.492839 68.758392 
L 269.330437 69.342232 
L 263.037671 69.700637 
L 256.677416 69.830028 
L 250.313221 69.729112 
L 244.008675 69.398896 
L 237.826772 68.842681 
L 231.829278 68.066023 
L 226.076119 67.076683 
L 220.624779 65.884547 
L 215.529725 64.501524 
L 210.841865 62.941435 
L 206.60804 61.219867 
L 202.870552 59.354021 
L 199.666744 57.36254 
L 197.028629 55.265323 
L 194.982565 53.083325 
L 193.548995 50.838346 
L 192.742245 48.552818 
L 192.570374 46.249578 
L 193.0351 43.951638 
L 194.131779 41.681959 
L 195.849454 39.463219 
L 198.170962 37.317586 
L 201.073108 35.266499 
L 204.526894 33.330453 
L 208.497811 31.52879 
L 212.946183 29.879513 
L 217.827564 28.399101 
L 223.093179 27.102346 
L 228.690418 26.002204 
L 234.563354 25.109668 
L 240.653307 24.433655 
L 246.899428 23.98092 
L 253.239308 23.755987 
L 259.6096 23.761103 
L 265.946656 23.996217 
L 272.187156 24.45898 
L 278.268749 25.144767 
L 284.130669 26.046728 
L 289.714345 27.155849 
L 294.963988 28.461049 
L 299.827144 29.949287 
L 304.255223 31.605693 
L 308.20398 33.413715 
L 311.633962 35.35529 
L 314.510896 37.411018 
L 316.806038 39.560359 
L 318.496454 41.781836 
L 319.565256 44.053254 
L 320.001763 46.351917 
L 319.801615 48.654859 
L 318.966812 50.939068 
L 317.505693 53.181722 
L 315.432859 55.360413 
L 312.76902 57.453372 
L 309.540793 59.439687 
L 305.780433 61.299512 
L 301.525512 63.014263 
L 296.818545 64.566807 
L 291.70656 65.941632 
L 286.240637 67.125001 
L 280.475388 68.105091 
L 274.468418 68.872108 
L 268.279746 69.418388 
L 261.971208 69.738474 
L 255.605837 69.829168 
L 249.247233 69.689562 
L 242.958929 69.321053 
L 236.803757 68.727321 
L 230.843215 67.9143 
L 225.136861 66.890113 
L 219.74171 65.664992 
L 214.711669 64.25118 
L 210.096996 62.662803 
L 205.9438 60.91573 
L 202.293577 59.027419 
L 199.1828 57.016736 
L 196.642551 54.903772 
L 194.698211 52.709639 
L 193.369207 50.456259 
L 192.668818 48.166148 
L 192.604042 45.862188 
L 193.175526 43.5674 
L 194.377561 41.304711 
L 196.198136 39.09673 
L 198.61906 36.965519 
L 201.616144 34.932371 
L 205.159443 33.017602 
L 209.213552 31.240343 
L 213.737966 29.618352 
L 218.687476 28.167835 
L 218.687476 28.167835 
" style="fill:none;stroke:#1f77b4;stroke-linecap:square;stroke-width:1.5;"/>
   </g>
   <g id="patch_3">
    <path d="M 46.704063 170.28 
L 46.704063 7.2 
" style="fill:none;stroke:#000000;stroke-linecap:square;stroke-linejoin:miter;stroke-width:0.8;"/>
   </g>
   <g id="patch_4">
    <path d="M 381.504063 170.28 
L 381.504063 7.2 
" style="fill:none;stroke:#000000;stroke-linecap:square;stroke-linejoin:miter;stroke-width:0.8;"/>
   </g>
   <g id="patch_5">
    <path d="M 46.704062 170.28 
L 381.504063 170.28 
" style="fill:none;stroke:#000000;stroke-linecap:square;stroke-linejoin:miter;stroke-width:0.8;"/>
   </g>
   <g id="patch_6">
    <path d="M 46.704062 7.2 
L 381.504063 7.2 
" style="fill:none;stroke:#000000;stroke-linecap:square;stroke-linejoin:miter;stroke-width:0.8;"/>
   </g>
  </g>
 </g>
 <defs>
  <clipPath id="p52b810462c">
   <rect height="163.08" width="334.8" x="46.704063" y="7.2"/>
  </clipPath>
 </defs>
</svg>
